<svg width="1366" height="1366" viewBox="0 0 1366 1366" fill="none" xmlns="http://www.w3.org/2000/svg">
<path d="M399.788 163.939C327.254 173.939 269.121 228.473 256.988 297.673C254.988 309.673 254.188 341.806 256.054 340.873C275.921 330.606 316.188 311.406 330.321 305.406C408.988 271.939 504.588 243.539 553.921 238.873C558.854 238.473 562.988 237.673 562.988 237.273C562.988 236.739 559.121 231.539 554.588 225.673C530.588 195.406 495.254 174.073 455.654 165.806C442.854 163.139 412.588 162.073 399.788 163.939Z" fill="#002237"/>
<path d="M566.667 255.333C525.2 262.533 498.267 269.6 454 284.533C394.267 304.667 337.867 327.467 287.2 352C268.133 361.2 265.467 362.933 263.6 367.067C262.267 369.6 261.333 373.333 261.333 375.2C261.333 380.667 266.267 393.867 275.067 411.867L283.067 428.4L282.267 441.867C280.667 470.533 267.733 495.2 250.667 502.4L246 504.267L251.867 509.467C259.867 516.667 272.933 522.667 286.267 525.2C292.4 526.4 297.333 528 297.333 528.667C297.333 531.733 290.267 551.867 286.267 559.733C278.933 574.933 263.6 585.733 223.733 604.133C196.667 616.533 182.533 625.733 166.133 641.467C133.067 673.067 112.8 718.267 108.267 770.933L107.2 782.667H376.4H645.467L644.667 779.867C644.133 778.267 639.333 767.467 633.867 756C628.4 744.4 624 734.533 624 734.133C624 733.733 625.733 733.333 628 733.333C633.733 733.333 644.4 728.933 650.533 724.133C657.867 718.267 664.133 705.467 664.933 694.267C665.867 683.6 663.333 671.067 654.667 642.133C641.6 599.067 636.533 578.667 625.467 526.667L621.6 508.667L624.4 504C626.8 500.133 627.333 497.467 627.2 488C626.933 477.733 626 473.333 621.6 464.933C621.333 464.4 622.667 464 624.533 464C634.4 464 642.667 455.867 642.667 446.267C642.667 438.4 634.533 415.467 621.333 386.667C611.2 364.267 609.733 360.4 611.333 358.667C614.8 354.8 616 345.467 614.267 334C613.467 328.133 612.933 319.6 613.067 314.933C613.6 301.067 600.933 259.733 594.533 254.267C590.933 251.467 588.8 251.467 566.667 255.333ZM594.8 316.933C597.733 324.667 599.867 337.867 598.533 340.267C596.933 343.2 595.467 343.2 582 340.533C566 337.2 538.267 337.467 525.067 341.067C511.733 344.667 500.533 349.2 491.2 354.8C481.867 360.533 472 368.933 472 371.467C472 374.667 484.8 373.733 494 369.867C516.133 360.267 527.733 357.067 543.2 356.4C553.467 355.867 558.533 356.133 559.2 357.067C560.533 359.2 556.4 360.933 542.533 363.733C527.333 366.933 515.867 371.067 512.667 374.667C510.267 377.333 510.4 377.333 518.933 377.333C527.467 377.333 527.733 377.467 529.333 381.333C531.6 386.667 537.733 391.733 543.333 392.8C553.2 394.667 561.467 388.4 563.467 377.733C564.667 371.6 573.733 361.733 579.733 359.867C586 358 592.133 358.667 593.333 361.333C593.867 362.4 595.333 367.467 596.533 372.667C597.733 377.733 602.533 390.133 607.2 400C620.933 429.067 626 442.533 624.4 445.067C623.333 446.933 619.867 447.467 606.533 448.133C596.933 448.667 587.467 449.867 584 451.2C576.4 453.867 574 453.867 571.467 451.2C568.533 448.4 568.8 442.4 572 438.267C575.333 434 575.333 432.4 572 430.667C568.133 428.533 560.667 432.133 558 437.333C556.4 440.4 555.867 444.133 556.267 450.8L556.667 460L548.667 463.467C544.4 465.467 537.867 468.8 534.267 470.933L527.867 474.667L518.133 470.667C491.867 459.733 469.2 441.067 450.267 414.933L444.267 406.4L443.467 412.267C442.933 415.333 441.733 427.333 440.667 438.667C439.6 450 437.067 467.467 434.8 477.333C428.533 505.733 427.067 524.933 430.133 538C430.667 539.867 429.2 539.067 425.467 535.067C414.667 523.867 413.6 508.533 421.6 477.2C425.733 461.2 425.867 459.733 426 432.667C426 417.2 425.733 392.667 425.333 378L424.667 351.333L443.333 344.4C466.933 335.733 488.267 329.2 508.267 324.8C532.4 319.333 570.133 314 587.067 313.467C592.8 313.333 593.467 313.733 594.8 316.933ZM374.133 359.333C381.067 363.333 385.333 368.667 390.133 379.2C395.2 390.267 395.867 405.467 392.133 423.733C386.533 450.8 380.133 461.333 369.467 461.333C352.533 461.333 331.333 437.6 324.667 411.333C322.133 401.2 322.133 386.133 324.8 378.4C328.4 367.6 337.867 358.667 348.667 355.867C355.6 354 368 355.733 374.133 359.333ZM341.733 465.733C350.933 472.8 360.8 476.533 370.267 476.533C374.933 476.667 378.667 477.2 378.667 478C378.667 478.667 379.6 487.467 380.8 497.333C388 559.733 410.133 614.8 439.867 644C450.667 654.667 462.667 662 471.733 663.467C476.8 664.267 477.6 664.933 480.533 671.333C484.133 679.333 490.8 686.4 499.467 691.467C504.133 694.267 508 695.2 515.2 695.733C524 696.267 524.933 696.667 526.4 699.867C528.667 705.067 535.867 713.333 540.533 716.133C545.6 719.2 544 719.333 534.667 716.533C517.333 711.467 483.6 694.267 447.467 672.267C384.667 634.133 372 626.667 352.933 617.333C336 608.8 310.267 597.867 295.6 592.8C293.2 592 293.333 591.6 296.533 586C315.333 554 326.8 520.4 332.267 481.6C333.867 470.533 335.333 461.333 335.6 461.333C335.733 461.333 338.533 463.333 341.733 465.733ZM462 466.267C466.267 472.667 466.4 480.4 462.4 492.8C458 506.667 458.533 514.533 464.4 527.467C470.4 540.8 470.533 545.333 465.333 560C459.867 575.467 460.133 578.933 467.333 592.533C474.133 605.6 474.933 611.733 470.667 621.2C469.2 624.4 468 628.667 468 630.8C468 635.6 466.267 635.733 461.867 631.333C458.667 628.133 458.533 627.467 459.333 617.6C460.267 607.467 460.133 607.2 454.8 596.133C447.733 581.6 447.467 572.933 453.333 556C455.467 549.733 457.333 543.6 457.333 542.267C457.333 540.933 454.933 535.467 452 530.133C447.067 521.2 446.667 519.6 446.667 510.4C446.667 503.333 447.867 496.267 450.533 486.533C452.8 478.933 455.2 470.133 456 466.933C456.8 463.867 457.733 461.333 458 461.333C458.267 461.333 460.133 463.6 462 466.267ZM606.4 490.133C609.733 492.4 610.133 494.933 607.6 497.2C606.533 498 599.333 499.6 591.467 500.8C574.8 503.2 568 505.333 561.733 510.133C556 514.4 553.067 518.933 552 525.067L551.067 530L549.467 524.267C545.333 509.6 558.133 494.4 578.667 489.867C589.467 487.467 602.8 487.6 606.4 490.133ZM499.867 501.067C501.867 508 501.733 512.133 498.667 527.733C494.267 550.533 495.467 558.8 505.467 574.267C513.067 585.867 513.867 593.867 508.8 609.867C503.467 627.067 504.267 631.733 514.8 643.733C524.133 654.4 525.2 666.667 517.333 673.6C515.2 675.733 512.8 677.333 512.267 677.333C511.733 677.333 511.2 673.733 511.067 669.333C510.8 660.4 509.6 657.467 502.933 650.133C497.333 643.867 493.867 636.133 492.667 627.2C492 621.467 492.533 618.267 495.867 608.533C498.133 602 500 594.933 500 592.667C500 590.133 497.733 584.933 494.133 579.067C483.6 562.267 481.467 547.2 486.667 525.467C488.133 519.333 490.133 508.533 490.933 501.6L492.533 489.067L495.6 492.533C497.2 494.4 499.2 498.267 499.867 501.067ZM543.467 550.933C545.867 555.6 545.867 563.2 543.333 577.333C540.133 594.8 541.333 600 552.533 616C557.467 622.933 558.4 632.4 556 650.8C554.267 663.733 554.267 663.733 557.6 669.6C559.467 672.667 562.4 676.533 564 678C568.533 682.133 570.667 687.2 570.667 694.133C570.667 699.333 570 700.933 566.133 704.8C560.533 710.4 558.933 710.533 559.733 705.333C560.8 698 558.667 692.133 552 683.867C543.467 673.2 542.133 668.933 543.2 655.467C545.6 626.533 545.6 627.467 543.067 623.867C528.267 602.533 527.067 597.467 531.467 574.533C533.733 562.8 534.267 546.667 532.667 541.2C531.733 538.267 532.133 538.4 536.667 542.667C539.333 545.2 542.4 548.933 543.467 550.933ZM585.6 559.067C586.8 563.067 586.8 567.6 585.6 577.867C583.867 593.733 584.667 598.667 590.533 607.2C599.2 619.733 600.533 628.8 596.667 646C594.133 656.933 595.067 660.667 602.8 670C610 678.667 612 683.6 612 692.667C612 701.333 609.867 706.267 603.867 711.2C598.8 715.467 597.867 714.933 599.867 709.2C601.733 703.867 601.733 693.333 599.867 688.4C599.2 686.4 596.133 681.867 593.2 678.4C582.667 665.867 580.8 657.333 584.8 640.4C587.6 628.267 586.667 623.2 580.133 613.867C572.533 602.933 570.933 594.933 573.333 577.733C574.267 570.4 574.8 559.733 574.4 554.133L573.733 543.867L578.933 548.933C581.733 551.733 584.8 556.267 585.6 559.067ZM616.533 571.2C618.933 582.267 621.733 590.933 626.267 600.4L632.667 614L632.267 632L632 649.867L638.533 660.667C646.8 674.267 648.4 679.733 647.733 692.667C647.333 702.267 646.933 703.2 642.933 706.8C636.4 712.667 635.467 712 636.533 701.467C637.6 688.667 635.6 679.6 629.333 670.133C619.333 654.533 618.533 651.6 619.467 633.067C620.4 615.333 620.8 617.467 611.333 594.933C607.2 584.933 606.667 571.467 610 561.2C611.333 557.467 612.533 554.667 612.8 554.933C613.067 555.2 614.667 562.533 616.533 571.2Z" fill="#002237"/>
<path d="M345.333 371.733C330.267 379.2 330.133 407.6 345.067 427.333C351.867 436.133 356.8 439.733 359.733 437.867C363.6 435.333 363.067 432.133 357.333 423.333C346.8 407.2 343.867 393.333 349.467 386.133C355.067 378.933 361.733 384 364.933 397.867C366.933 406.8 370 410.4 374.133 408.8C382 405.733 375.2 378.133 364.933 372C359.6 368.667 351.467 368.533 345.333 371.733Z" fill="#002237"/>
<path d="M668 516.267V530.267L676.133 531.2C686.4 532.4 692.267 535.2 695.467 540.533C697.6 544.133 698 548.533 698.667 576.667C699.333 608.267 699.333 608.8 703.067 616.133C706.533 623.2 713.867 631.333 721.2 636.133L724.4 638.133L717.6 642.933C710.667 648 704.4 656.133 701.333 664C700 667.333 699.333 679.067 698.8 703.733L698 738.933L693.867 742.667C689.6 746.4 679.867 749.333 672 749.333H668V763.333V777.333H679.733C709.6 777.2 726 767.733 731.333 747.2C732.8 741.2 733.333 731.6 733.333 706C733.333 674 733.467 672.267 736.4 666.667C739.733 659.867 745.867 655.2 754.267 653.067L760 651.733V638.667V625.6L754.933 624.667C746.133 623.2 739.6 618.667 736 611.333C732.8 604.8 732.667 603.733 732 568C731.333 532.933 731.2 531.067 728.267 525.067C724.133 516.8 715.2 509.067 706.4 506.133C702.267 504.8 692.933 503.467 683.733 503.067L668 502.267V516.267Z" fill="#960E1C"/>
<path d="M471.333 822.8C450.267 826.267 436.267 837.6 429.733 856.533C427.467 862.8 427.333 869.6 427.333 940V1016.67L431.067 1024.67C438 1039.6 450 1048.8 466.4 1052C484 1055.47 499.067 1051.33 510 1040L515.333 1034.53L519.333 1042.8C521.467 1047.33 523.733 1050.93 524.4 1050.93C524.933 1050.8 529.333 1050.67 534.4 1050.67H543.333V990.667V930.667H515.733H488V947.333V964H496H504V983.6C504 1006.27 502.8 1011.87 497.2 1016.53C493.733 1019.47 491.733 1020 484.8 1020C475.6 1020 471.867 1018.13 468.267 1011.6C466.267 1007.73 466 1001.2 465.6 943.333C465.333 908.133 465.6 876.133 466 872.133C466.667 866.667 467.867 864 471.333 860.133C475.6 855.467 476.133 855.333 485.2 855.333C493.6 855.333 494.933 855.733 498 858.8C502.533 863.2 503.867 869.6 504 884.933V897.333H523.467H542.933L542.4 878.933C541.6 856.667 539.2 848.933 529.2 838C516.4 824.133 495.733 818.667 471.333 822.8Z" fill="#002237"/>
<path d="M1079.73 822.667C1060.8 824.533 1045.87 834.133 1038.93 849.2C1031.47 865.333 1031.87 893.067 1039.87 910.133C1044.93 920.933 1051.6 928 1078.8 951.467C1097.87 967.733 1101.6 971.6 1104.8 978.133C1107.87 984.4 1108.53 987.333 1108.4 995.867C1108.27 1013.6 1102 1020.53 1087.07 1019.73C1080 1019.33 1078.13 1018.53 1074.8 1015.47C1070.13 1011.07 1068 1002.8 1068 990V981.333H1049.33H1030.67V994.267C1030.67 1016.13 1035.2 1028.93 1046.8 1039.2C1058.27 1049.73 1073.2 1054 1094 1053.07C1119.6 1051.73 1136.27 1040.93 1143.47 1021.07C1148.67 1006.53 1148 978.133 1142.27 965.067C1138 955.467 1130.93 947.6 1111.6 931.067C1076.53 900.933 1073.07 896.267 1072.27 878.667C1071.87 869.6 1072.13 866.133 1074 862.8C1077.73 855.333 1089.6 852.533 1099.33 856.533C1106.67 859.733 1108.4 863.733 1109.07 880.133L1109.73 894.667H1128.4H1147.07L1146.27 876.933C1145.6 857.867 1144 851.733 1137.47 842.133C1127.07 826.933 1106.8 820.133 1079.73 822.667Z" fill="#002237"/>
<path d="M138.667 824.8C119.6 830 106.533 844.667 102.667 865.333C101.867 869.467 101.333 900 101.333 939.867C101.333 994.933 101.733 1008.93 103.333 1015.73C108 1035.47 121.2 1048.13 141.067 1052C158.533 1055.47 173.867 1051.6 184.267 1041.07L190 1035.2L194 1043.33C196.8 1048.8 198.8 1051.33 200.4 1051.2C201.6 1051.07 206.267 1050.93 210.667 1050.8L218.667 1050.67V990.667V930.667H190.533H162.533L162.933 946.933L163.333 963.333L171.867 963.733L180.267 964.133L179.733 985.733C179.2 1009.73 177.867 1014.27 170.667 1018C166.133 1020.27 154.933 1020.67 150.267 1018.53C148.533 1017.73 146 1015.2 144.533 1012.93C142.133 1008.93 142 1004.93 141.6 939.067C141.2 863.6 141.333 862.667 148.4 858C153.467 854.8 163.867 854 169.733 856.533C176.933 859.467 178.933 865.067 179.2 882.933L179.333 897.333H198.933H218.667V886.933C218.533 855.2 209.2 836.533 188.8 827.067C181.467 823.733 179.067 823.333 163.333 823.067C151.067 822.8 143.867 823.333 138.667 824.8Z" fill="#002237"/>
<path d="M247.333 937.333V1050.67H267.333H287.333V937.333V824H267.333H247.333V937.333Z" fill="#002237"/>
<path d="M317.333 937.333V1050.67H363.333H409.333V1033.33V1016H383.333H357.333V920V824H337.333H317.333V937.333Z" fill="#002237"/>
<path d="M602 826.933C601.6 828.667 592.667 877.067 582 934.667C571.333 992.267 562.133 1041.87 561.467 1045.07L560.267 1050.8L579.733 1050.4L599.2 1050L602.133 1031.33C603.867 1021.07 605.6 1010.67 606 1008.27L606.8 1004H627.733H648.8L651.867 1024.27C653.6 1035.47 655.2 1046 655.6 1047.6C656.267 1050.67 656.667 1050.67 676.267 1050.67C694.667 1050.67 696.133 1050.53 695.467 1048.27C694.8 1046 686.533 1002.13 664.933 884.667L653.867 824.667L628.267 824.267L602.667 824L602 826.933ZM635.867 926.133L643.6 972H627.6H611.733L612.533 968.267C614.533 958.4 626.667 883.733 626.8 880.4C626.933 873.467 628.267 880.133 635.867 926.133Z" fill="#002237"/>
<path d="M717.333 937.333V1050.67H735.6H753.733L753.067 978.267C752.667 938.533 752.8 907.2 753.333 908.667C753.867 910.133 762.533 942.667 772.8 980.933L791.333 1050.67H802.133H812.933L817.2 1033.87C826.8 997.067 849.333 912.533 850.267 910.267C850.933 908.933 851.067 940 850.933 979.333L850.4 1050.67H868.533H886.667V937.333V824H861.6H836.667L827.467 862.933C822.533 884.4 814.667 916.933 810.267 935.333L802.133 968.667L796.533 945.333C793.467 932.533 786.4 902.133 780.8 878C775.067 853.733 769.867 831.733 769.2 828.933L767.867 824H742.667H717.333V937.333Z" fill="#002237"/>
<path d="M918.667 937.333V1050.67H966H1013.33V1033.33V1015.87L986 1016.27L958.667 1016.67V985.6V954.667H982H1005.33V937.333V920H982H958.667V888.667V857.333H986H1013.33V840.667V824H966H918.667V937.333Z" fill="#002237"/>
<path d="M1172 937.2V1050.53L1191.33 1050.93L1210.67 1051.33V1001.6V952H1230.67H1250.67V1001.33V1050.67H1270H1289.33V937.333V824H1270H1250.67V870V916H1230.67H1210.67V870V824H1191.33H1172V937.2Z" fill="#002237"/>
</svg>
